<?xml version="1.0" standalone="no"?><!DOCTYPE svg PUBLIC "-//W3C//DTD SVG 1.1//EN" "http://www.w3.org/Graphics/SVG/1.1/DTD/svg11.dtd"><svg t="1709186078558" class="icon" viewBox="0 0 1024 1024" version="1.1" xmlns="http://www.w3.org/2000/svg" p-id="4612" xmlns:xlink="http://www.w3.org/1999/xlink" width="64" height="64"><path d="M513.705002 532.683911m-385.778197 0a385.778196 385.778196 0 1 0 771.556393 0 385.778196 385.778196 0 1 0-771.556393 0Z" fill="#27BEC4" p-id="4613"></path><path d="M679.038515 629.12846h-82.666757c0-84.905648-67.855629-153.725722-151.55572-153.725722v-80.496754a234.222476 234.222476 0 0 1 234.222477 234.222476zM596.371758 629.12846h82.666757v41.333379h-82.666757z" fill="#FFFFFF" p-id="4614"></path><path d="M320.815904 670.461839h385.778196v27.555585h-385.778196z" fill="#272528" p-id="4615"></path><path d="M389.704867 339.794813h82.666757v234.222477h-82.666757z" fill="#FFFFFF" p-id="4616"></path><path d="M403.48266 574.01729h55.111171v13.777792h-55.111171zM410.371556 298.461435h41.333379v41.333378h-41.333379z" fill="#272528" p-id="4617"></path><path d="M403.48266 284.683642h55.111171v13.777793h-55.111171z" fill="#FFFFFF" p-id="4618"></path><path d="M389.704867 543.017256h82.666757v6.888896h-82.666757z" fill="#272528" p-id="4619"></path><path d="M679.038515 698.017424v82.666756h-41.333379a41.333378 41.333378 0 0 0-41.333378-41.333378h-165.333513a41.333378 41.333378 0 0 0-41.333378 41.333378h-41.333378v-82.666756zM410.371556 587.795082h41.333379v13.777793h-41.333379z" fill="#FFFFFF" p-id="4620"></path><path d="M527.482795 498.23943m-20.66669 0a20.666689 20.666689 0 1 0 41.333379 0 20.666689 20.666689 0 1 0-41.333379 0Z" fill="#272528" p-id="4621"></path><path d="M348.371489 698.017424h330.667026v6.888896h-330.667026zM472.371624 401.79488h6.888896v79.222309h-6.888896z" fill="#D3D2D3" p-id="4622"></path><path d="M486.149416 401.79488m-34.444481 0a34.444482 34.444482 0 1 0 68.888963 0 34.444482 34.444482 0 1 0-68.888963 0Z" fill="#272528" p-id="4623"></path><path d="M486.149416 401.79488m-13.777792 0a13.777793 13.777793 0 1 0 27.555585 0 13.777793 13.777793 0 1 0-27.555585 0Z" fill="#FFFFFF" p-id="4624"></path></svg>